#N canvas 480 181 1196 653 10;
#X obj 182 -325 receive fromGUI;
#X obj 182 -296 route list;
#X obj 474 -247 soundfiler;
#X obj 473 -304 loadbang;
#X obj 471 -343 bng 15 250 50 0 empty empty empty 17 7 0 10 -262144
-1 -1;
#X obj 573 -247 table carSound;
#X msg 472 -275 read -resize car.wav carSound;
#X floatatom 472 -218 5 0 0 0 - - -;
#X obj 345 -266 / 44100;
#X obj 345 -220 pow -1;
#X floatatom 344 -185 5 0 0 0 - - -;
#X obj 344 -156 sig~;
#X obj 343 -118 phasor~;
#X obj 345 -85 *~;
#X obj 347 -48 tabread~ carSound;
#X msg 545 -175 \; pd dsp \$1;
#X obj 544 -203 tgl 15 0 empty empty empty 17 7 0 10 -262144 -1 -1
0 1;
#X obj 346 50 dac~;
#X obj 184 -269 route /mySlider;
#X obj 219 -213 / 50;
#X obj -49 -295 route list;
#X obj -49 -327 receive fromSystem;
#X obj -48 -271 route /tilts /shake;
#X obj -62 -209 unpack 0 0;
#X floatatom -156 -109 5 0 0 0 - - -;
#X floatatom -99 -108 5 0 0 0 - - -;
#X obj -159 -73 *~;
#X obj -96 -71 *~;
#X obj -157 -146 expr 1 - $f1;
#X obj 6 -236 pack 0 0;
#X obj -298 -268 soundfiler;
#X obj -300 -326 loadbang;
#X msg -300 -296 read -resize honk.wav honk;
#X obj 677 -135 route list;
#X obj 678 -111 route /myButton;
#X obj 678 -43 tabplay~ honk;
#X obj 677 -167 receive fromGUI;
#X obj 673 12 dac~;
#X msg 748 -70 0;
#X obj -219 -268 table honk;
#X obj -297 -170 soundfiler;
#X obj -299 -228 loadbang;
#X obj -297 -9 soundfiler;
#X obj -299 -67 loadbang;
#X msg -299 -198 read -resize no.wav no;
#X obj -218 -170 table no;
#X msg -299 -37 read -resize beep.wav beep;
#X obj -218 -9 table beep;
#X obj 813 -135 route list;
#X obj 813 -167 receive fromGUI;
#X obj 809 12 dac~;
#X msg 884 -70 0;
#X obj 927 -138 route list;
#X obj 927 -170 receive fromGUI;
#X obj 923 9 dac~;
#X msg 998 -73 0;
#X obj 815 -111 route /no;
#X obj 814 -43 tabplay~ no;
#X obj 928 -114 route /beep;
#X obj 928 -46 tabplay~ beep;
#X connect 0 0 1 0;
#X connect 1 0 18 0;
#X connect 2 0 7 0;
#X connect 3 0 6 0;
#X connect 4 0 3 0;
#X connect 6 0 2 0;
#X connect 7 0 8 0;
#X connect 7 0 13 1;
#X connect 8 0 9 0;
#X connect 9 0 10 0;
#X connect 10 0 11 0;
#X connect 11 0 12 0;
#X connect 12 0 13 0;
#X connect 13 0 14 0;
#X connect 14 0 27 0;
#X connect 14 0 26 0;
#X connect 16 0 15 0;
#X connect 18 0 4 0;
#X connect 18 0 19 0;
#X connect 19 0 10 0;
#X connect 20 0 22 0;
#X connect 21 0 20 0;
#X connect 22 0 29 0;
#X connect 23 0 28 0;
#X connect 24 0 26 1;
#X connect 25 0 27 1;
#X connect 26 0 17 0;
#X connect 27 0 17 1;
#X connect 28 0 24 0;
#X connect 28 0 25 0;
#X connect 29 0 23 0;
#X connect 31 0 32 0;
#X connect 32 0 30 0;
#X connect 33 0 34 0;
#X connect 34 0 38 0;
#X connect 35 0 37 0;
#X connect 35 0 37 1;
#X connect 36 0 33 0;
#X connect 38 0 35 0;
#X connect 41 0 44 0;
#X connect 43 0 46 0;
#X connect 44 0 40 0;
#X connect 46 0 42 0;
#X connect 48 0 56 0;
#X connect 49 0 48 0;
#X connect 51 0 57 0;
#X connect 52 0 58 0;
#X connect 53 0 52 0;
#X connect 55 0 59 0;
#X connect 56 0 51 0;
#X connect 57 0 50 0;
#X connect 57 0 50 1;
#X connect 58 0 55 0;
#X connect 59 0 54 0;
#X connect 59 0 54 1;
